ISO-10303-21;
HEADER;
/* Generated by software containing ST-Developer
 * from STEP Tools, Inc. (www.steptools.com) 
 */

FILE_DESCRIPTION(
/* description */ (''),
/* implementation_level */ '2;1');

FILE_NAME(
/* name */ 'Skydio_x10_model.step',
/* time_stamp */ '2026-08-31T16:03:29-04:00',
/* author */ (''),
/* organization */ (''),
/* preprocessor_version */ 'ST-DEVELOPER v20.1',
/* originating_system */ 'Autodesk Translation Framework v15.8.0.0',
/* authorisation */ '');

FILE_SCHEMA (('AUTOMOTIVE_DESIGN { 1 0 10303 214 3 1 1 }'));
ENDSEC;

DATA;
#10=MECHANICAL_DESIGN_GEOMETRIC_PRESENTATION_REPRESENTATION('',(#13),#129);
#11=SHAPE_REPRESENTATION_RELATIONSHIP('SRR','None',#136,#12);
#12=ADVANCED_BREP_SHAPE_REPRESENTATION('',(#63),#128);
#13=STYLED_ITEM('',(#145),#63);
#14=ORIENTED_CLOSED_SHELL('',*,#62,.F.);
#15=FACE_OUTER_BOUND('',#19,.T.);
#16=FACE_OUTER_BOUND('',#20,.T.);
#17=FACE_OUTER_BOUND('',#21,.T.);
#18=FACE_OUTER_BOUND('',#22,.T.);
#19=EDGE_LOOP('',(#41,#42,#43));
#20=EDGE_LOOP('',(#44,#45,#46));
#21=EDGE_LOOP('',(#47,#48,#49));
#22=EDGE_LOOP('',(#50,#51,#52));
#23=CIRCLE('',#78,175.26);
#24=CIRCLE('',#79,227.320230769231);
#25=CIRCLE('',#81,227.320230769231);
#26=CIRCLE('',#83,168.91);
#27=CIRCLE('',#84,225.308583333333);
#28=CIRCLE('',#86,225.308583333333);
#29=VERTEX_POINT('',#111);
#30=VERTEX_POINT('',#113);
#31=VERTEX_POINT('',#116);
#32=VERTEX_POINT('',#119);
#33=VERTEX_POINT('',#121);
#34=VERTEX_POINT('',#124);
#35=EDGE_CURVE('',#29,#29,#23,.T.);
#36=EDGE_CURVE('',#29,#30,#24,.T.);
#37=EDGE_CURVE('',#31,#29,#25,.T.);
#38=EDGE_CURVE('',#32,#32,#26,.T.);
#39=EDGE_CURVE('',#33,#32,#27,.T.);
#40=EDGE_CURVE('',#32,#34,#28,.T.);
#41=ORIENTED_EDGE('',*,*,#35,.F.);
#42=ORIENTED_EDGE('',*,*,#36,.T.);
#43=ORIENTED_EDGE('',*,*,#36,.F.);
#44=ORIENTED_EDGE('',*,*,#35,.T.);
#45=ORIENTED_EDGE('',*,*,#37,.F.);
#46=ORIENTED_EDGE('',*,*,#37,.T.);
#47=ORIENTED_EDGE('',*,*,#38,.F.);
#48=ORIENTED_EDGE('',*,*,#39,.F.);
#49=ORIENTED_EDGE('',*,*,#39,.T.);
#50=ORIENTED_EDGE('',*,*,#38,.T.);
#51=ORIENTED_EDGE('',*,*,#40,.T.);
#52=ORIENTED_EDGE('',*,*,#40,.F.);
#53=SPHERICAL_SURFACE('',#77,227.320230769231);
#54=SPHERICAL_SURFACE('',#80,227.320230769231);
#55=SPHERICAL_SURFACE('',#82,225.308583333333);
#56=SPHERICAL_SURFACE('',#85,225.308583333333);
#57=ADVANCED_FACE('',(#15),#53,.T.);
#58=ADVANCED_FACE('',(#16),#54,.T.);
#59=ADVANCED_FACE('',(#17),#55,.F.);
#60=ADVANCED_FACE('',(#18),#56,.F.);
#61=CLOSED_SHELL('',(#57,#58));
#62=CLOSED_SHELL('',(#59,#60));
#63=BREP_WITH_VOIDS('Body1',#61,(#14));
#64=DERIVED_UNIT_ELEMENT(#66,1.);
#65=DERIVED_UNIT_ELEMENT(#131,-3.);
#66=(
MASS_UNIT()
NAMED_UNIT(*)
SI_UNIT(.KILO.,.GRAM.)
);
#67=DERIVED_UNIT((#64,#65));
#68=MEASURE_REPRESENTATION_ITEM('density measure',
POSITIVE_RATIO_MEASURE(7850.),#67);
#69=PROPERTY_DEFINITION_REPRESENTATION(#74,#71);
#70=PROPERTY_DEFINITION_REPRESENTATION(#75,#72);
#71=REPRESENTATION('material name',(#73),#128);
#72=REPRESENTATION('density',(#68),#128);
#73=DESCRIPTIVE_REPRESENTATION_ITEM('Steel','Steel');
#74=PROPERTY_DEFINITION('material property','material name',#138);
#75=PROPERTY_DEFINITION('material property','density of part',#138);
#76=AXIS2_PLACEMENT_3D('',#109,#87,#88);
#77=AXIS2_PLACEMENT_3D('',#110,#89,#90);
#78=AXIS2_PLACEMENT_3D('',#112,#91,#92);
#79=AXIS2_PLACEMENT_3D('',#114,#93,#94);
#80=AXIS2_PLACEMENT_3D('',#115,#95,#96);
#81=AXIS2_PLACEMENT_3D('',#117,#97,#98);
#82=AXIS2_PLACEMENT_3D('',#118,#99,#100);
#83=AXIS2_PLACEMENT_3D('',#120,#101,#102);
#84=AXIS2_PLACEMENT_3D('',#122,#103,#104);
#85=AXIS2_PLACEMENT_3D('',#123,#105,#106);
#86=AXIS2_PLACEMENT_3D('',#125,#107,#108);
#87=DIRECTION('axis',(0.,0.,1.));
#88=DIRECTION('refdir',(1.,0.,0.));
#89=DIRECTION('center_axis',(6.12323399573677E-17,0.,1.));
#90=DIRECTION('ref_axis',(1.,0.,0.));
#91=DIRECTION('center_axis',(0.,-6.12323399573677E-17,1.));
#92=DIRECTION('ref_axis',(1.,0.,0.));
#93=DIRECTION('center_axis',(1.22464679914735E-16,-1.,0.));
#94=DIRECTION('ref_axis',(-1.,-1.22464679914735E-16,0.));
#95=DIRECTION('center_axis',(6.12323399573677E-17,0.,1.));
#96=DIRECTION('ref_axis',(1.,0.,0.));
#97=DIRECTION('center_axis',(1.22464679914735E-16,-1.,0.));
#98=DIRECTION('ref_axis',(-1.,-1.22464679914735E-16,0.));
#99=DIRECTION('center_axis',(6.12323399573677E-17,0.,1.));
#100=DIRECTION('ref_axis',(1.,0.,0.));
#101=DIRECTION('center_axis',(0.,-6.12323399573677E-17,1.));
#102=DIRECTION('ref_axis',(1.,0.,0.));
#103=DIRECTION('center_axis',(1.22464679914735E-16,-1.,0.));
#104=DIRECTION('ref_axis',(-1.,-1.22464679914735E-16,0.));
#105=DIRECTION('center_axis',(6.12323399573677E-17,0.,1.));
#106=DIRECTION('ref_axis',(1.,0.,0.));
#107=DIRECTION('center_axis',(1.22464679914735E-16,-1.,0.));
#108=DIRECTION('ref_axis',(-1.,-1.22464679914735E-16,0.));
#109=CARTESIAN_POINT('',(0.,0.,0.));
#110=CARTESIAN_POINT('Origin',(0.,1.15463194561016E-13,144.770230769231));
#111=CARTESIAN_POINT('',(-175.26,9.40000347591598E-14,1.77635683940025E-14));
#112=CARTESIAN_POINT('Origin',(0.,0.,8.88178419700125E-15));
#113=CARTESIAN_POINT('',(-1.39193496496488E-14,1.15463194561016E-13,-82.5500000000002));
#114=CARTESIAN_POINT('Origin',(0.,1.15463194561016E-13,144.770230769231));
#115=CARTESIAN_POINT('Origin',(0.,1.15463194561016E-13,-144.770230769231));
#116=CARTESIAN_POINT('',(-1.39193496496488E-14,1.15463194561016E-13,82.5500000000001));
#117=CARTESIAN_POINT('Origin',(0.,1.15463194561016E-13,-144.770230769231));
#118=CARTESIAN_POINT('Origin',(0.,5.32907051820075E-14,-149.108583333333));
#119=CARTESIAN_POINT('',(-168.91,3.26051960976096E-14,7.05530138605458E-31));
#120=CARTESIAN_POINT('Origin',(0.,0.,8.88178419700125E-15));
#121=CARTESIAN_POINT('',(-1.37961717699796E-14,5.32907051820075E-14,76.2));
#122=CARTESIAN_POINT('Origin',(0.,5.32907051820075E-14,-149.108583333333));
#123=CARTESIAN_POINT('Origin',(0.,5.32907051820075E-14,149.108583333333));
#124=CARTESIAN_POINT('',(-1.37961717699796E-14,5.32907051820075E-14,-76.2000000000001));
#125=CARTESIAN_POINT('Origin',(0.,5.32907051820075E-14,149.108583333333));
#126=UNCERTAINTY_MEASURE_WITH_UNIT(LENGTH_MEASURE(0.01),#130,
'DISTANCE_ACCURACY_VALUE',
'Maximum model space distance between geometric entities at asserted c
onnectivities');
#127=UNCERTAINTY_MEASURE_WITH_UNIT(LENGTH_MEASURE(0.01),#130,
'DISTANCE_ACCURACY_VALUE',
'Maximum model space distance between geometric entities at asserted c
onnectivities');
#128=(
GEOMETRIC_REPRESENTATION_CONTEXT(3)
GLOBAL_UNCERTAINTY_ASSIGNED_CONTEXT((#126))
GLOBAL_UNIT_ASSIGNED_CONTEXT((#130,#132,#133))
REPRESENTATION_CONTEXT('','3D')
);
#129=(
GEOMETRIC_REPRESENTATION_CONTEXT(3)
GLOBAL_UNCERTAINTY_ASSIGNED_CONTEXT((#127))
GLOBAL_UNIT_ASSIGNED_CONTEXT((#130,#132,#133))
REPRESENTATION_CONTEXT('','3D')
);
#130=(
LENGTH_UNIT()
NAMED_UNIT(*)
SI_UNIT(.MILLI.,.METRE.)
);
#131=(
LENGTH_UNIT()
NAMED_UNIT(*)
SI_UNIT($,.METRE.)
);
#132=(
NAMED_UNIT(*)
PLANE_ANGLE_UNIT()
SI_UNIT($,.RADIAN.)
);
#133=(
NAMED_UNIT(*)
SI_UNIT($,.STERADIAN.)
SOLID_ANGLE_UNIT()
);
#134=SHAPE_DEFINITION_REPRESENTATION(#135,#136);
#135=PRODUCT_DEFINITION_SHAPE('',$,#138);
#136=SHAPE_REPRESENTATION('',(#76),#128);
#137=PRODUCT_DEFINITION_CONTEXT('part definition',#142,'design');
#138=PRODUCT_DEFINITION('2026-08-31-15-56-30-028','Skydio_x10_model',#139,
#137);
#139=PRODUCT_DEFINITION_FORMATION('',$,#144);
#140=PRODUCT_RELATED_PRODUCT_CATEGORY('Skydio_x10_model',
'Skydio_x10_model',(#144));
#141=APPLICATION_PROTOCOL_DEFINITION('international standard',
'automotive_design',2009,#142);
#142=APPLICATION_CONTEXT(
'Core Data for Automotive Mechanical Design Process');
#143=PRODUCT_CONTEXT('part definition',#142,'mechanical');
#144=PRODUCT('2026-08-31-15-56-30-028','Skydio_x10_model',$,(#143));
#145=PRESENTATION_STYLE_ASSIGNMENT((#146));
#146=SURFACE_STYLE_USAGE(.BOTH.,#147);
#147=SURFACE_SIDE_STYLE('',(#148));
#148=SURFACE_STYLE_FILL_AREA(#149);
#149=FILL_AREA_STYLE('Steel - Satin',(#150));
#150=FILL_AREA_STYLE_COLOUR('Steel - Satin',#151);
#151=COLOUR_RGB('Steel - Satin',0.627450980392157,0.627450980392157,0.627450980392157);
ENDSEC;
END-ISO-10303-21;
